<svg xmlns="http://www.w3.org/2000/svg" width="1200" height="900" viewBox="0 0 1200 900">
<rect width="100%" height="100%" fill="#0f0f1a"/>
<line x1="600.0" y1="60.0" x2="621.1" y2="60.6" stroke="#3a3a5a" stroke-width="0.5" stroke-opacity="0.6"/>
<line x1="600.0" y1="60.0" x2="642.2" y2="62.3" stroke="#3a3a5a" stroke-width="0.5" stroke-opacity="0.6"/>
<line x1="600.0" y1="60.0" x2="663.1" y2="65.1" stroke="#3a3a5a" stroke-width="0.5" stroke-opacity="0.6"/>
<line x1="600.0" y1="60.0" x2="683.8" y2="69.1" stroke="#3a3a5a" stroke-width="0.5" stroke-opacity="0.6"/>
<line x1="600.0" y1="60.0" x2="704.3" y2="74.2" stroke="#3a3a5a" stroke-width="0.5" stroke-opacity="0.6"/>
<line x1="724.5" y1="80.4" x2="744.4" y2="87.7" stroke="#3a3a5a" stroke-width="0.5" stroke-opacity="0.6"/>
<line x1="724.5" y1="80.4" x2="763.8" y2="96.0" stroke="#3a3a5a" stroke-width="0.5" stroke-opacity="0.6"/>
<line x1="724.5" y1="80.4" x2="782.7" y2="105.4" stroke="#3a3a5a" stroke-width="0.5" stroke-opacity="0.6"/>
<line x1="724.5" y1="80.4" x2="801.1" y2="115.8" stroke="#3a3a5a" stroke-width="0.5" stroke-opacity="0.6"/>
<line x1="724.5" y1="80.4" x2="818.9" y2="127.2" stroke="#3a3a5a" stroke-width="0.5" stroke-opacity="0.6"/>
<line x1="724.5" y1="80.4" x2="836.0" y2="139.5" stroke="#3a3a5a" stroke-width="0.5" stroke-opacity="0.6"/>
<line x1="724.5" y1="80.4" x2="852.5" y2="152.8" stroke="#3a3a5a" stroke-width="0.5" stroke-opacity="0.6"/>
<line x1="724.5" y1="80.4" x2="868.2" y2="166.9" stroke="#3a3a5a" stroke-width="0.5" stroke-opacity="0.6"/>
<line x1="724.5" y1="80.4" x2="883.1" y2="181.8" stroke="#3a3a5a" stroke-width="0.5" stroke-opacity="0.6"/>
<line x1="724.5" y1="80.4" x2="897.2" y2="197.5" stroke="#3a3a5a" stroke-width="0.5" stroke-opacity="0.6"/>
<line x1="724.5" y1="80.4" x2="910.5" y2="214.0" stroke="#3a3a5a" stroke-width="0.5" stroke-opacity="0.6"/>
<line x1="724.5" y1="80.4" x2="922.8" y2="231.1" stroke="#3a3a5a" stroke-width="0.5" stroke-opacity="0.6"/>
<line x1="724.5" y1="80.4" x2="934.2" y2="248.9" stroke="#3a3a5a" stroke-width="0.5" stroke-opacity="0.6"/>
<line x1="724.5" y1="80.4" x2="944.6" y2="267.3" stroke="#3a3a5a" stroke-width="0.5" stroke-opacity="0.6"/>
<line x1="724.5" y1="80.4" x2="954.0" y2="286.2" stroke="#3a3a5a" stroke-width="0.5" stroke-opacity="0.6"/>
<line x1="724.5" y1="80.4" x2="962.3" y2="305.6" stroke="#3a3a5a" stroke-width="0.5" stroke-opacity="0.6"/>
<line x1="724.5" y1="80.4" x2="969.6" y2="325.5" stroke="#3a3a5a" stroke-width="0.5" stroke-opacity="0.6"/>
<line x1="724.5" y1="80.4" x2="975.8" y2="345.7" stroke="#3a3a5a" stroke-width="0.5" stroke-opacity="0.6"/>
<line x1="724.5" y1="80.4" x2="980.9" y2="366.2" stroke="#3a3a5a" stroke-width="0.5" stroke-opacity="0.6"/>
<line x1="980.9" y1="366.2" x2="969.6" y2="325.5" stroke="#3a3a5a" stroke-width="0.5" stroke-opacity="0.6"/>
<line x1="980.9" y1="366.2" x2="954.0" y2="286.2" stroke="#3a3a5a" stroke-width="0.5" stroke-opacity="0.6"/>
<line x1="980.9" y1="366.2" x2="962.3" y2="305.6" stroke="#3a3a5a" stroke-width="0.5" stroke-opacity="0.6"/>
<line x1="980.9" y1="366.2" x2="975.8" y2="345.7" stroke="#3a3a5a" stroke-width="0.5" stroke-opacity="0.6"/>
<line x1="984.9" y1="386.9" x2="987.7" y2="407.8" stroke="#3a3a5a" stroke-width="0.5" stroke-opacity="0.6"/>
<line x1="984.9" y1="386.9" x2="989.4" y2="428.9" stroke="#3a3a5a" stroke-width="0.5" stroke-opacity="0.6"/>
<line x1="984.9" y1="386.9" x2="990.0" y2="450.0" stroke="#3a3a5a" stroke-width="0.5" stroke-opacity="0.6"/>
<line x1="984.9" y1="386.9" x2="989.4" y2="471.1" stroke="#3a3a5a" stroke-width="0.5" stroke-opacity="0.6"/>
<line x1="984.9" y1="386.9" x2="987.7" y2="492.2" stroke="#3a3a5a" stroke-width="0.5" stroke-opacity="0.6"/>
<line x1="984.9" y1="386.9" x2="984.9" y2="513.1" stroke="#3a3a5a" stroke-width="0.5" stroke-opacity="0.6"/>
<line x1="984.9" y1="386.9" x2="980.9" y2="533.8" stroke="#3a3a5a" stroke-width="0.5" stroke-opacity="0.6"/>
<line x1="984.9" y1="386.9" x2="975.8" y2="554.3" stroke="#3a3a5a" stroke-width="0.5" stroke-opacity="0.6"/>
<line x1="984.9" y1="386.9" x2="969.6" y2="574.5" stroke="#3a3a5a" stroke-width="0.5" stroke-opacity="0.6"/>
<line x1="984.9" y1="386.9" x2="962.3" y2="594.4" stroke="#3a3a5a" stroke-width="0.5" stroke-opacity="0.6"/>
<line x1="984.9" y1="386.9" x2="954.0" y2="613.8" stroke="#3a3a5a" stroke-width="0.5" stroke-opacity="0.6"/>
<line x1="984.9" y1="386.9" x2="944.6" y2="632.7" stroke="#3a3a5a" stroke-width="0.5" stroke-opacity="0.6"/>
<line x1="984.9" y1="386.9" x2="934.2" y2="651.1" stroke="#3a3a5a" stroke-width="0.5" stroke-opacity="0.6"/>
<line x1="984.9" y1="386.9" x2="922.8" y2="668.9" stroke="#3a3a5a" stroke-width="0.5" stroke-opacity="0.6"/>
<line x1="984.9" y1="386.9" x2="910.5" y2="686.0" stroke="#3a3a5a" stroke-width="0.5" stroke-opacity="0.6"/>
<line x1="984.9" y1="386.9" x2="897.2" y2="702.5" stroke="#3a3a5a" stroke-width="0.5" stroke-opacity="0.6"/>
<line x1="984.9" y1="386.9" x2="883.1" y2="718.2" stroke="#3a3a5a" stroke-width="0.5" stroke-opacity="0.6"/>
<line x1="984.9" y1="386.9" x2="868.2" y2="733.1" stroke="#3a3a5a" stroke-width="0.5" stroke-opacity="0.6"/>
<line x1="984.9" y1="386.9" x2="852.5" y2="747.2" stroke="#3a3a5a" stroke-width="0.5" stroke-opacity="0.6"/>
<line x1="984.9" y1="386.9" x2="836.0" y2="760.5" stroke="#3a3a5a" stroke-width="0.5" stroke-opacity="0.6"/>
<line x1="984.9" y1="386.9" x2="818.9" y2="772.8" stroke="#3a3a5a" stroke-width="0.5" stroke-opacity="0.6"/>
<line x1="984.9" y1="386.9" x2="801.1" y2="784.2" stroke="#3a3a5a" stroke-width="0.5" stroke-opacity="0.6"/>
<line x1="984.9" y1="386.9" x2="782.7" y2="794.6" stroke="#3a3a5a" stroke-width="0.5" stroke-opacity="0.6"/>
<line x1="984.9" y1="386.9" x2="763.8" y2="804.0" stroke="#3a3a5a" stroke-width="0.5" stroke-opacity="0.6"/>
<line x1="984.9" y1="386.9" x2="744.4" y2="812.3" stroke="#3a3a5a" stroke-width="0.5" stroke-opacity="0.6"/>
<line x1="984.9" y1="386.9" x2="724.5" y2="819.6" stroke="#3a3a5a" stroke-width="0.5" stroke-opacity="0.6"/>
<line x1="984.9" y1="386.9" x2="704.3" y2="825.8" stroke="#3a3a5a" stroke-width="0.5" stroke-opacity="0.6"/>
<line x1="984.9" y1="386.9" x2="683.8" y2="830.9" stroke="#3a3a5a" stroke-width="0.5" stroke-opacity="0.6"/>
<line x1="984.9" y1="386.9" x2="663.1" y2="834.9" stroke="#3a3a5a" stroke-width="0.5" stroke-opacity="0.6"/>
<line x1="984.9" y1="386.9" x2="642.2" y2="837.7" stroke="#3a3a5a" stroke-width="0.5" stroke-opacity="0.6"/>
<line x1="984.9" y1="386.9" x2="621.1" y2="839.4" stroke="#3a3a5a" stroke-width="0.5" stroke-opacity="0.6"/>
<line x1="984.9" y1="386.9" x2="600.0" y2="840.0" stroke="#3a3a5a" stroke-width="0.5" stroke-opacity="0.6"/>
<line x1="984.9" y1="386.9" x2="578.9" y2="839.4" stroke="#3a3a5a" stroke-width="0.5" stroke-opacity="0.6"/>
<line x1="984.9" y1="386.9" x2="557.8" y2="837.7" stroke="#3a3a5a" stroke-width="0.5" stroke-opacity="0.6"/>
<line x1="984.9" y1="386.9" x2="536.9" y2="834.9" stroke="#3a3a5a" stroke-width="0.5" stroke-opacity="0.6"/>
<line x1="984.9" y1="386.9" x2="516.2" y2="830.9" stroke="#3a3a5a" stroke-width="0.5" stroke-opacity="0.6"/>
<line x1="984.9" y1="386.9" x2="495.7" y2="825.8" stroke="#3a3a5a" stroke-width="0.5" stroke-opacity="0.6"/>
<line x1="984.9" y1="386.9" x2="475.5" y2="819.6" stroke="#3a3a5a" stroke-width="0.5" stroke-opacity="0.6"/>
<line x1="984.9" y1="386.9" x2="455.6" y2="812.3" stroke="#3a3a5a" stroke-width="0.5" stroke-opacity="0.6"/>
<line x1="984.9" y1="386.9" x2="436.2" y2="804.0" stroke="#3a3a5a" stroke-width="0.5" stroke-opacity="0.6"/>
<line x1="984.9" y1="386.9" x2="417.3" y2="794.6" stroke="#3a3a5a" stroke-width="0.5" stroke-opacity="0.6"/>
<line x1="984.9" y1="386.9" x2="398.9" y2="784.2" stroke="#3a3a5a" stroke-width="0.5" stroke-opacity="0.6"/>
<line x1="984.9" y1="386.9" x2="381.1" y2="772.8" stroke="#3a3a5a" stroke-width="0.5" stroke-opacity="0.6"/>
<line x1="984.9" y1="386.9" x2="364.0" y2="760.5" stroke="#3a3a5a" stroke-width="0.5" stroke-opacity="0.6"/>
<line x1="984.9" y1="386.9" x2="347.5" y2="747.2" stroke="#3a3a5a" stroke-width="0.5" stroke-opacity="0.6"/>
<line x1="984.9" y1="386.9" x2="331.8" y2="733.1" stroke="#3a3a5a" stroke-width="0.5" stroke-opacity="0.6"/>
<line x1="984.9" y1="386.9" x2="316.9" y2="718.2" stroke="#3a3a5a" stroke-width="0.5" stroke-opacity="0.6"/>
<line x1="984.9" y1="386.9" x2="302.8" y2="702.5" stroke="#3a3a5a" stroke-width="0.5" stroke-opacity="0.6"/>
<line x1="984.9" y1="386.9" x2="289.5" y2="686.0" stroke="#3a3a5a" stroke-width="0.5" stroke-opacity="0.6"/>
<line x1="984.9" y1="386.9" x2="277.2" y2="668.9" stroke="#3a3a5a" stroke-width="0.5" stroke-opacity="0.6"/>
<line x1="984.9" y1="386.9" x2="265.8" y2="651.1" stroke="#3a3a5a" stroke-width="0.5" stroke-opacity="0.6"/>
<line x1="984.9" y1="386.9" x2="255.4" y2="632.7" stroke="#3a3a5a" stroke-width="0.5" stroke-opacity="0.6"/>
<line x1="984.9" y1="386.9" x2="246.0" y2="613.8" stroke="#3a3a5a" stroke-width="0.5" stroke-opacity="0.6"/>
<line x1="984.9" y1="386.9" x2="237.7" y2="594.4" stroke="#3a3a5a" stroke-width="0.5" stroke-opacity="0.6"/>
<line x1="984.9" y1="386.9" x2="230.4" y2="574.5" stroke="#3a3a5a" stroke-width="0.5" stroke-opacity="0.6"/>
<line x1="984.9" y1="386.9" x2="224.2" y2="554.3" stroke="#3a3a5a" stroke-width="0.5" stroke-opacity="0.6"/>
<line x1="984.9" y1="386.9" x2="219.1" y2="533.8" stroke="#3a3a5a" stroke-width="0.5" stroke-opacity="0.6"/>
<line x1="984.9" y1="386.9" x2="215.1" y2="513.1" stroke="#3a3a5a" stroke-width="0.5" stroke-opacity="0.6"/>
<line x1="984.9" y1="386.9" x2="212.3" y2="492.2" stroke="#3a3a5a" stroke-width="0.5" stroke-opacity="0.6"/>
<line x1="984.9" y1="386.9" x2="210.6" y2="471.1" stroke="#3a3a5a" stroke-width="0.5" stroke-opacity="0.6"/>
<line x1="984.9" y1="386.9" x2="210.0" y2="450.0" stroke="#3a3a5a" stroke-width="0.5" stroke-opacity="0.6"/>
<line x1="984.9" y1="386.9" x2="210.6" y2="428.9" stroke="#3a3a5a" stroke-width="0.5" stroke-opacity="0.6"/>
<line x1="984.9" y1="386.9" x2="212.3" y2="407.8" stroke="#3a3a5a" stroke-width="0.5" stroke-opacity="0.6"/>
<line x1="381.1" y1="772.8" x2="398.9" y2="784.2" stroke="#3a3a5a" stroke-width="0.5" stroke-opacity="0.6"/>
<line x1="289.5" y1="686.0" x2="347.5" y2="747.2" stroke="#3a3a5a" stroke-width="0.5" stroke-opacity="0.6"/>
<line x1="265.8" y1="651.1" x2="347.5" y2="747.2" stroke="#3a3a5a" stroke-width="0.5" stroke-opacity="0.6"/>
<line x1="219.1" y1="533.8" x2="224.2" y2="554.3" stroke="#3a3a5a" stroke-width="0.5" stroke-opacity="0.6"/>
<line x1="219.1" y1="533.8" x2="212.3" y2="407.8" stroke="#3a3a5a" stroke-width="0.5" stroke-opacity="0.6"/>
<line x1="210.6" y1="428.9" x2="215.1" y2="513.1" stroke="#3a3a5a" stroke-width="0.5" stroke-opacity="0.6"/>
<line x1="210.6" y1="428.9" x2="289.5" y2="686.0" stroke="#3a3a5a" stroke-width="0.5" stroke-opacity="0.6"/>
<line x1="210.6" y1="428.9" x2="277.2" y2="668.9" stroke="#3a3a5a" stroke-width="0.5" stroke-opacity="0.6"/>
<line x1="210.6" y1="428.9" x2="246.0" y2="613.8" stroke="#3a3a5a" stroke-width="0.5" stroke-opacity="0.6"/>
<line x1="210.6" y1="428.9" x2="265.8" y2="651.1" stroke="#3a3a5a" stroke-width="0.5" stroke-opacity="0.6"/>
<line x1="210.6" y1="428.9" x2="219.1" y2="533.8" stroke="#3a3a5a" stroke-width="0.5" stroke-opacity="0.6"/>
<line x1="210.6" y1="428.9" x2="398.9" y2="784.2" stroke="#3a3a5a" stroke-width="0.5" stroke-opacity="0.6"/>
<line x1="210.6" y1="428.9" x2="417.3" y2="794.6" stroke="#3a3a5a" stroke-width="0.5" stroke-opacity="0.6"/>
<line x1="210.6" y1="428.9" x2="331.8" y2="733.1" stroke="#3a3a5a" stroke-width="0.5" stroke-opacity="0.6"/>
<line x1="210.6" y1="428.9" x2="230.4" y2="574.5" stroke="#3a3a5a" stroke-width="0.5" stroke-opacity="0.6"/>
<line x1="210.6" y1="428.9" x2="381.1" y2="772.8" stroke="#3a3a5a" stroke-width="0.5" stroke-opacity="0.6"/>
<line x1="210.6" y1="428.9" x2="364.0" y2="760.5" stroke="#3a3a5a" stroke-width="0.5" stroke-opacity="0.6"/>
<line x1="210.6" y1="428.9" x2="347.5" y2="747.2" stroke="#3a3a5a" stroke-width="0.5" stroke-opacity="0.6"/>
<line x1="210.6" y1="428.9" x2="210.6" y2="471.1" stroke="#3a3a5a" stroke-width="0.5" stroke-opacity="0.6"/>
<line x1="210.6" y1="428.9" x2="302.8" y2="702.5" stroke="#3a3a5a" stroke-width="0.5" stroke-opacity="0.6"/>
<line x1="210.6" y1="428.9" x2="210.0" y2="450.0" stroke="#3a3a5a" stroke-width="0.5" stroke-opacity="0.6"/>
<line x1="210.6" y1="428.9" x2="237.7" y2="594.4" stroke="#3a3a5a" stroke-width="0.5" stroke-opacity="0.6"/>
<line x1="210.6" y1="428.9" x2="316.9" y2="718.2" stroke="#3a3a5a" stroke-width="0.5" stroke-opacity="0.6"/>
<line x1="210.6" y1="428.9" x2="212.3" y2="492.2" stroke="#3a3a5a" stroke-width="0.5" stroke-opacity="0.6"/>
<line x1="212.3" y1="407.8" x2="210.6" y2="428.9" stroke="#3a3a5a" stroke-width="0.5" stroke-opacity="0.6"/>
<line x1="215.1" y1="386.9" x2="219.1" y2="366.2" stroke="#3a3a5a" stroke-width="0.5" stroke-opacity="0.6"/>
<line x1="215.1" y1="386.9" x2="224.2" y2="345.7" stroke="#3a3a5a" stroke-width="0.5" stroke-opacity="0.6"/>
<line x1="215.1" y1="386.9" x2="230.4" y2="325.5" stroke="#3a3a5a" stroke-width="0.5" stroke-opacity="0.6"/>
<line x1="215.1" y1="386.9" x2="237.7" y2="305.6" stroke="#3a3a5a" stroke-width="0.5" stroke-opacity="0.6"/>
<line x1="215.1" y1="386.9" x2="246.0" y2="286.2" stroke="#3a3a5a" stroke-width="0.5" stroke-opacity="0.6"/>
<line x1="215.1" y1="386.9" x2="255.4" y2="267.3" stroke="#3a3a5a" stroke-width="0.5" stroke-opacity="0.6"/>
<line x1="255.4" y1="267.3" x2="246.0" y2="286.2" stroke="#3a3a5a" stroke-width="0.5" stroke-opacity="0.6"/>
<line x1="265.8" y1="248.9" x2="277.2" y2="231.1" stroke="#3a3a5a" stroke-width="0.5" stroke-opacity="0.6"/>
<line x1="265.8" y1="248.9" x2="289.5" y2="214.0" stroke="#3a3a5a" stroke-width="0.5" stroke-opacity="0.6"/>
<line x1="265.8" y1="248.9" x2="302.8" y2="197.5" stroke="#3a3a5a" stroke-width="0.5" stroke-opacity="0.6"/>
<line x1="265.8" y1="248.9" x2="316.9" y2="181.8" stroke="#3a3a5a" stroke-width="0.5" stroke-opacity="0.6"/>
<line x1="265.8" y1="248.9" x2="331.8" y2="166.9" stroke="#3a3a5a" stroke-width="0.5" stroke-opacity="0.6"/>
<line x1="265.8" y1="248.9" x2="347.5" y2="152.8" stroke="#3a3a5a" stroke-width="0.5" stroke-opacity="0.6"/>
<line x1="265.8" y1="248.9" x2="364.0" y2="139.5" stroke="#3a3a5a" stroke-width="0.5" stroke-opacity="0.6"/>
<line x1="381.1" y1="127.2" x2="398.9" y2="115.8" stroke="#3a3a5a" stroke-width="0.5" stroke-opacity="0.6"/>
<line x1="381.1" y1="127.2" x2="417.3" y2="105.4" stroke="#3a3a5a" stroke-width="0.5" stroke-opacity="0.6"/>
<line x1="381.1" y1="127.2" x2="436.2" y2="96.0" stroke="#3a3a5a" stroke-width="0.5" stroke-opacity="0.6"/>
<line x1="381.1" y1="127.2" x2="455.6" y2="87.7" stroke="#3a3a5a" stroke-width="0.5" stroke-opacity="0.6"/>
<line x1="381.1" y1="127.2" x2="475.5" y2="80.4" stroke="#3a3a5a" stroke-width="0.5" stroke-opacity="0.6"/>
<line x1="381.1" y1="127.2" x2="495.7" y2="74.2" stroke="#3a3a5a" stroke-width="0.5" stroke-opacity="0.6"/>
<line x1="381.1" y1="127.2" x2="516.2" y2="69.1" stroke="#3a3a5a" stroke-width="0.5" stroke-opacity="0.6"/>
<line x1="381.1" y1="127.2" x2="536.9" y2="65.1" stroke="#3a3a5a" stroke-width="0.5" stroke-opacity="0.6"/>
<line x1="381.1" y1="127.2" x2="557.8" y2="62.3" stroke="#3a3a5a" stroke-width="0.5" stroke-opacity="0.6"/>
<line x1="381.1" y1="127.2" x2="578.9" y2="60.6" stroke="#3a3a5a" stroke-width="0.5" stroke-opacity="0.6"/>
<circle cx="600.0" cy="60.0" r="6" fill="#B07AA1" opacity="0.85"><title>GPU_MASTER_SYNC</title></circle>
<circle cx="621.1" cy="60.6" r="6" fill="#B07AA1" opacity="0.85"><title>os</title></circle>
<circle cx="642.2" cy="62.3" r="6" fill="#B07AA1" opacity="0.85"><title>sys</title></circle>
<circle cx="663.1" cy="65.1" r="6" fill="#B07AA1" opacity="0.85"><title>patch()</title></circle>
<circle cx="683.8" cy="69.1" r="6" fill="#B07AA1" opacity="0.85"><title>append_after()</title></circle>
<circle cx="704.3" cy="74.2" r="6" fill="#B07AA1" opacity="0.85"><title>write_file()</title></circle>
<circle cx="724.5" cy="80.4" r="6" fill="#E15759" opacity="0.85"><title>router</title></circle>
<circle cx="744.4" cy="87.7" r="6" fill="#E15759" opacity="0.85"><title>logging</title></circle>
<circle cx="763.8" cy="96.0" r="6" fill="#E15759" opacity="0.85"><title>re</title></circle>
<circle cx="782.7" cy="105.4" r="6" fill="#E15759" opacity="0.85"><title>typing.Dict</title></circle>
<circle cx="801.1" cy="115.8" r="6" fill="#E15759" opacity="0.85"><title>typing.Tuple</title></circle>
<circle cx="818.9" cy="127.2" r="6" fill="#E15759" opacity="0.85"><title>numpy</title></circle>
<circle cx="836.0" cy="139.5" r="6" fill="#E15759" opacity="0.85"><title>core.config.ROUTER_BIAS_RATIO</title></circle>
<circle cx="852.5" cy="152.8" r="6" fill="#E15759" opacity="0.85"><title>core.config.ROUTER_CARD_CONF_DIVISOR</title></circle>
<circle cx="868.2" cy="166.9" r="6" fill="#E15759" opacity="0.85"><title>core.config.ROUTER_CARD_TOKEN_MAX</title></circle>
<circle cx="883.1" cy="181.8" r="6" fill="#E15759" opacity="0.85"><title>core.config.ROUTER_CONFIDENCE_THRESHOLD</title></circle>
<circle cx="897.2" cy="197.5" r="6" fill="#E15759" opacity="0.85"><title>core.config.ROUTER_FORM_CONF_DIVISOR</title></circle>
<circle cx="910.5" cy="214.0" r="6" fill="#E15759" opacity="0.85"><title>core.config.ROUTER_FORM_TOKEN_MIN</title></circle>
<circle cx="922.8" cy="231.1" r="6" fill="#E15759" opacity="0.85"><title>core.config.ROUTER_MIXED_CONFIDENCE</title></circle>
<circle cx="934.2" cy="248.9" r="6" fill="#E15759" opacity="0.85"><title>core.config.ROUTER_TABLE_SIGNAL_MIN</title></circle>
<circle cx="944.6" cy="267.3" r="6" fill="#E15759" opacity="0.85"><title>core.config.SKIP_KEYWORDS</title></circle>
<circle cx="954.0" cy="286.2" r="6" fill="#FF9DA7" opacity="0.85"><title>_normalize_text()</title></circle>
<circle cx="962.3" cy="305.6" r="6" fill="#FF9DA7" opacity="0.85"><title>_contains_card_signals()</title></circle>
<circle cx="969.6" cy="325.5" r="6" fill="#FF9DA7" opacity="0.85"><title>_contains_form_signals()</title></circle>
<circle cx="975.8" cy="345.7" r="6" fill="#FF9DA7" opacity="0.85"><title>_contains_skip_signals()</title></circle>
<circle cx="980.9" cy="366.2" r="6" fill="#FF9DA7" opacity="0.85"><title>classify_document_lane()</title></circle>
<circle cx="984.9" cy="386.9" r="6" fill="#4E79A7" opacity="0.85"><title>pipeline-visualizer-per-step</title></circle>
<circle cx="987.7" cy="407.8" r="6" fill="#4E79A7" opacity="0.85"><title>argparse</title></circle>
<circle cx="989.4" cy="428.9" r="6" fill="#4E79A7" opacity="0.85"><title>json</title></circle>
<circle cx="990.0" cy="450.0" r="6" fill="#4E79A7" opacity="0.85"><title>logging</title></circle>
<circle cx="989.4" cy="471.1" r="6" fill="#4E79A7" opacity="0.85"><title>time</title></circle>
<circle cx="987.7" cy="492.2" r="6" fill="#4E79A7" opacity="0.85"><title>datetime</title></circle>
<circle cx="984.9" cy="513.1" r="6" fill="#4E79A7" opacity="0.85"><title>pathlib.Path</title></circle>
<circle cx="980.9" cy="533.8" r="6" fill="#4E79A7" opacity="0.85"><title>typing.Any</title></circle>
<circle cx="975.8" cy="554.3" r="6" fill="#4E79A7" opacity="0.85"><title>typing.Dict</title></circle>
<circle cx="969.6" cy="574.5" r="6" fill="#4E79A7" opacity="0.85"><title>typing.List</title></circle>
<circle cx="962.3" cy="594.4" r="6" fill="#4E79A7" opacity="0.85"><title>typing.Optional</title></circle>
<circle cx="954.0" cy="613.8" r="6" fill="#4E79A7" opacity="0.85"><title>typing.Tuple</title></circle>
<circle cx="944.6" cy="632.7" r="6" fill="#4E79A7" opacity="0.85"><title>cv2</title></circle>
<circle cx="934.2" cy="651.1" r="6" fill="#4E79A7" opacity="0.85"><title>numpy</title></circle>
<circle cx="922.8" cy="668.9" r="6" fill="#4E79A7" opacity="0.85"><title>torch</title></circle>
<circle cx="910.5" cy="686.0" r="6" fill="#4E79A7" opacity="0.85"><title>core.classifiers.detect_aadhaar_side</title></circle>
<circle cx="897.2" cy="702.5" r="6" fill="#4E79A7" opacity="0.85"><title>core.classifiers.is_aadhaar_card_confirmed</title></circle>
<circle cx="883.1" cy="718.2" r="6" fill="#4E79A7" opacity="0.85"><title>core.classifiers.mask_pvc_aadhaar</title></circle>
<circle cx="868.2" cy="733.1" r="6" fill="#4E79A7" opacity="0.85"><title>core.config.GPU_ENABLED</title></circle>
<circle cx="852.5" cy="747.2" r="6" fill="#4E79A7" opacity="0.85"><title>core.config.ROUTER_CONFIDENCE_THRESHOLD</title></circle>
<circle cx="836.0" cy="760.5" r="6" fill="#4E79A7" opacity="0.85"><title>core.config.ROUTER_ENABLED</title></circle>
<circle cx="818.9" cy="772.8" r="6" fill="#4E79A7" opacity="0.85"><title>core.config.YOLO_MAIN_DILATE_ENABLED</title></circle>
<circle cx="801.1" cy="784.2" r="6" fill="#4E79A7" opacity="0.85"><title>core.models.yolo_runner.get_yolo_best</title></circle>
<circle cx="782.7" cy="794.6" r="6" fill="#4E79A7" opacity="0.85"><title>core.models.yolo_runner.get_yolo_main</title></circle>
<circle cx="763.8" cy="804.0" r="6" fill="#4E79A7" opacity="0.85"><title>core.ocr.masking.find_aadhaar_patterns</title></circle>
<circle cx="744.4" cy="812.3" r="6" fill="#4E79A7" opacity="0.85"><title>core.ocr.masking.mask_ocr_detections</title></circle>
<circle cx="724.5" cy="819.6" r="6" fill="#4E79A7" opacity="0.85"><title>core.ocr.masking.mask_yolo_detections</title></circle>
<circle cx="704.3" cy="825.8" r="6" fill="#4E79A7" opacity="0.85"><title>core.ocr.masking.merge_detections</title></circle>
<circle cx="683.8" cy="830.9" r="6" fill="#4E79A7" opacity="0.85"><title>core.ocr.masking.yolo_results_to_detections</title></circle>
<circle cx="663.1" cy="834.9" r="6" fill="#4E79A7" opacity="0.85"><title>core.ocr.paddle.run_ocr_lite_for_routing</title></circle>
<circle cx="642.2" cy="837.7" r="6" fill="#4E79A7" opacity="0.85"><title>core.pipeline._correct_doc_orientation</title></circle>
<circle cx="621.1" cy="839.4" r="6" fill="#4E79A7" opacity="0.85"><title>core.pipeline._get_ocr</title></circle>
<circle cx="600.0" cy="840.0" r="6" fill="#4E79A7" opacity="0.85"><title>core.pipeline._run_ocr_for_card_path</title></circle>
<circle cx="578.9" cy="839.4" r="6" fill="#4E79A7" opacity="0.85"><title>core.pipeline._run_ocr_on_region</title></circle>
<circle cx="557.8" cy="837.7" r="6" fill="#4E79A7" opacity="0.85"><title>core.pipeline._verify_skip_pan</title></circle>
<circle cx="536.9" cy="834.9" r="6" fill="#4E79A7" opacity="0.85"><title>core.router.classify_document_lane</title></circle>
<circle cx="516.2" cy="830.9" r="6" fill="#4E79A7" opacity="0.85"><title>core.spatial.filter_dets_inside_box</title></circle>
<circle cx="495.7" cy="825.8" r="6" fill="#4E79A7" opacity="0.85"><title>core.spatial.map_crop_dets_to_full</title></circle>
<circle cx="475.5" cy="819.6" r="6" fill="#4E79A7" opacity="0.85"><title>core.utils.angle_detector.rotate_back_to_original_space</title></circle>
<circle cx="455.6" cy="812.3" r="6" fill="#4E79A7" opacity="0.85"><title>core.utils.angle_detector.rotate_image</title></circle>
<circle cx="436.2" cy="804.0" r="6" fill="#4E79A7" opacity="0.85"><title>core.utils.angle_detector.rotate_image_affine</title></circle>
<circle cx="417.3" cy="794.6" r="6" fill="#F28E2B" opacity="0.85"><title>_save_image()</title></circle>
<circle cx="398.9" cy="784.2" r="6" fill="#F28E2B" opacity="0.85"><title>_save_json()</title></circle>
<circle cx="381.1" cy="772.8" r="6" fill="#F28E2B" opacity="0.85"><title>_na_marker()</title></circle>
<circle cx="364.0" cy="760.5" r="6" fill="#F28E2B" opacity="0.85"><title>_tokens_from_ocr()</title></circle>
<circle cx="347.5" cy="747.2" r="6" fill="#9C755F" opacity="0.85"><title>_bbox_from_poly()</title></circle>
<circle cx="331.8" cy="733.1" r="6" fill="#F28E2B" opacity="0.85"><title>_box_area()</title></circle>
<circle cx="316.9" cy="718.2" r="6" fill="#F28E2B" opacity="0.85"><title>_rect_intersection()</title></circle>
<circle cx="302.8" cy="702.5" r="6" fill="#F28E2B" opacity="0.85"><title>_draw_boxes()</title></circle>
<circle cx="289.5" cy="686.0" r="6" fill="#9C755F" opacity="0.85"><title>_draw_tokens()</title></circle>
<circle cx="277.2" cy="668.9" r="6" fill="#F28E2B" opacity="0.85"><title>_draw_token_polygons()</title></circle>
<circle cx="265.8" cy="651.1" r="6" fill="#9C755F" opacity="0.85"><title>_draw_detected_words()</title></circle>
<circle cx="255.4" cy="632.7" r="6" fill="#4E79A7" opacity="0.85"><title>_draw_poly_regions()</title></circle>
<circle cx="246.0" cy="613.8" r="6" fill="#F28E2B" opacity="0.85"><title>_count_labels()</title></circle>
<circle cx="237.7" cy="594.4" r="6" fill="#F28E2B" opacity="0.85"><title>_derive_yolo_report_from_dets()</title></circle>
<circle cx="230.4" cy="574.5" r="6" fill="#F28E2B" opacity="0.85"><title>_rot()</title></circle>
<circle cx="224.2" cy="554.3" r="6" fill="#BAB0AC" opacity="0.85"><title>_preprocess_grey()</title></circle>
<circle cx="219.1" cy="533.8" r="6" fill="#BAB0AC" opacity="0.85"><title>_run_gate_once()</title></circle>
<circle cx="215.1" cy="513.1" r="6" fill="#F28E2B" opacity="0.85"><title>_attach_file_logger()</title></circle>
<circle cx="212.3" cy="492.2" r="6" fill="#F28E2B" opacity="0.85"><title>_detach_file_logger()</title></circle>
<circle cx="210.6" cy="471.1" r="6" fill="#F28E2B" opacity="0.85"><title>_make_tree()</title></circle>
<circle cx="210.0" cy="450.0" r="6" fill="#F28E2B" opacity="0.85"><title>_build_db_parity_report()</title></circle>
<circle cx="210.6" cy="428.9" r="6" fill="#F28E2B" opacity="0.85"><title>run_debug()</title></circle>
<circle cx="212.3" cy="407.8" r="6" fill="#BAB0AC" opacity="0.85"><title>main()</title></circle>
<circle cx="215.1" cy="386.9" r="6" fill="#EDC948" opacity="0.85"><title>export_session_to_json</title></circle>
<circle cx="219.1" cy="366.2" r="6" fill="#EDC948" opacity="0.85"><title>json</title></circle>
<circle cx="224.2" cy="345.7" r="6" fill="#EDC948" opacity="0.85"><title>sys</title></circle>
<circle cx="230.4" cy="325.5" r="6" fill="#EDC948" opacity="0.85"><title>datetime</title></circle>
<circle cx="237.7" cy="305.6" r="6" fill="#EDC948" opacity="0.85"><title>pathlib.Path</title></circle>
<circle cx="246.0" cy="286.2" r="6" fill="#EDC948" opacity="0.85"><title>to_ms()</title></circle>
<circle cx="255.4" cy="267.3" r="6" fill="#EDC948" opacity="0.85"><title>main()</title></circle>
<circle cx="265.8" cy="248.9" r="6" fill="#59A14F" opacity="0.85"><title>check_dynamo_table</title></circle>
<circle cx="277.2" cy="231.1" r="6" fill="#59A14F" opacity="0.85"><title>argparse</title></circle>
<circle cx="289.5" cy="214.0" r="6" fill="#59A14F" opacity="0.85"><title>os</title></circle>
<circle cx="302.8" cy="197.5" r="6" fill="#59A14F" opacity="0.85"><title>sys</title></circle>
<circle cx="316.9" cy="181.8" r="6" fill="#59A14F" opacity="0.85"><title>boto3</title></circle>
<circle cx="331.8" cy="166.9" r="6" fill="#59A14F" opacity="0.85"><title>botocore.exceptions.ClientError</title></circle>
<circle cx="347.5" cy="152.8" r="6" fill="#59A14F" opacity="0.85"><title>dotenv.load_dotenv</title></circle>
<circle cx="364.0" cy="139.5" r="6" fill="#59A14F" opacity="0.85"><title>check_table()</title></circle>
<circle cx="381.1" cy="127.2" r="6" fill="#76B7B2" opacity="0.85"><title>validate_config</title></circle>
<circle cx="398.9" cy="115.8" r="6" fill="#76B7B2" opacity="0.85"><title>os</title></circle>
<circle cx="417.3" cy="105.4" r="6" fill="#76B7B2" opacity="0.85"><title>sys</title></circle>
<circle cx="436.2" cy="96.0" r="6" fill="#76B7B2" opacity="0.85"><title>pathlib.Path</title></circle>
<circle cx="455.6" cy="87.7" r="6" fill="#76B7B2" opacity="0.85"><title>dotenv.load_dotenv</title></circle>
<circle cx="475.5" cy="80.4" r="6" fill="#76B7B2" opacity="0.85"><title>check()</title></circle>
<circle cx="495.7" cy="74.2" r="6" fill="#76B7B2" opacity="0.85"><title>torch</title></circle>
<circle cx="516.2" cy="69.1" r="6" fill="#76B7B2" opacity="0.85"><title>boto3</title></circle>
<circle cx="536.9" cy="65.1" r="6" fill="#76B7B2" opacity="0.85"><title>botocore.config.Config</title></circle>
<circle cx="557.8" cy="62.3" r="6" fill="#76B7B2" opacity="0.85"><title>botocore.exceptions.ClientError</title></circle>
<circle cx="578.9" cy="60.6" r="6" fill="#76B7B2" opacity="0.85"><title>paddleocr.PaddleOCR</title></circle>
</svg>
